<svg width="50px"  height="50px"  xmlns="http://www.w3.org/2000/svg" viewBox="0 0 100 100" preserveAspectRatio="xMidYMid"><g transform="translate(50,50)"><g ng-attr-transform="scale({{config.scale}})" transform="scale(1)"><g transform="translate(-50,-50)"><g transform="rotate(43.2 50 50)"><animateTransform attributeName="transform" type="rotate" calcMode="linear" values="0 50 50;360 50 50" keyTimes="0;1" dur="1.25s" begin="0s" repeatCount="indefinite"></animateTransform><path ng-attr-fillOpacity="{{config.opacity}}" ng-attr-fill="{{config.c1}}" d="M50 50L50 0A50 50 0 0 1 100 50Z" fillOpacity="0.8" fill="lightseagreen"></path></g><g transform="rotate(32.4 50 50)"><animateTransform attributeName="transform" type="rotate" calcMode="linear" values="0 50 50;360 50 50" keyTimes="0;1" dur="1.6666666666666667s" begin="0s" repeatCount="indefinite"></animateTransform><path ng-attr-fillOpacity="{{config.opacity}}" ng-attr-fill="{{config.c2}}" d="M50 50L50 0A50 50 0 0 1 100 50Z" transform="rotate(90 50 50)" fillOpacity="0.8" fill="#f08080"></path></g><g transform="rotate(21.6 50 50)"><animateTransform attributeName="transform" type="rotate" calcMode="linear" values="0 50 50;360 50 50" keyTimes="0;1" dur="2.5s" begin="0s" repeatCount="indefinite"></animateTransform><path ng-attr-fillOpacity="{{config.opacity}}" ng-attr-fill="{{config.c3}}" d="M50 50L50 0A50 50 0 0 1 100 50Z" transform="rotate(180 50 50)" fillOpacity="0.8" fill="lightsalmon"></path></g><g transform="rotate(10.8 50 50)"><animateTransform attributeName="transform" type="rotate" calcMode="linear" values="0 50 50;360 50 50" keyTimes="0;1" dur="5s" begin="0s" repeatCount="indefinite"></animateTransform><path ng-attr-fillOpacity="{{config.opacity}}" ng-attr-fill="{{config.c4}}" d="M50 50L50 0A50 50 0 0 1 100 50Z" transform="rotate(270 50 50)" fillOpacity="0.8" fill="#87cefa"></path></g></g></g></g></svg>
